HIERARCHY
ROOT Hips
{
	OFFSET 0.00000 0.00000 0.00000
	CHANNELS 6 Xposition Yposition Zposition Zrotation Yrotation Xrotation 
	JOINT LHipJoint
	{
		OFFSET 0 0 0
		CHANNELS 3 Zrotation Yrotation Xrotation
		JOINT LeftHip
		{
			OFFSET 1.38280 -1.96574 0.54427
			CHANNELS 3 Zrotation Yrotation Xrotation
			JOINT LeftKnee
			{
				OFFSET 2.72096 -7.47578 0.00000
				CHANNELS 3 Zrotation Yrotation Xrotation
				JOINT LeftAnkle
				{
					OFFSET 2.73041 -7.50176 0.00000
					CHANNELS 3 Zrotation Yrotation Xrotation
					JOINT LeftToe
					{
						OFFSET 0.16150 -0.44371 2.18031
						CHANNELS 3 Zrotation Yrotation Xrotation
						End Site
						{
							OFFSET 0.00000 -0.00000 1.12127
						}
					}
				}
			}
		}
	}
	JOINT RHipJoint
	{
		OFFSET 0 0 0
		CHANNELS 3 Zrotation Yrotation Xrotation
		JOINT RightHip
		{
			OFFSET -1.57224 -1.96575 0.54427
			CHANNELS 3 Zrotation Yrotation Xrotation
			JOINT RightKnee
			{
				OFFSET -2.95935 -8.13076 0.00000
				CHANNELS 3 Zrotation Yrotation Xrotation
				JOINT RightAnkle
				{
					OFFSET -2.52345 -6.93311 0.00000
					CHANNELS 3 Zrotation Yrotation Xrotation
					JOINT RightToe
					{
						OFFSET -0.04475 -0.10171 1.86688
						CHANNELS 3 Zrotation Yrotation Xrotation
						End Site
						{
							OFFSET -0.00000 -0.00000 0.95157
						}
					}
				}
			}
		}
	}
	JOINT lowerback
	{
		OFFSET 0 0 0
		CHANNELS 3 Zrotation Yrotation Xrotation
		JOINT Chest
		{
			OFFSET 0.00669 2.07367 0.09104
			CHANNELS 3 Zrotation Yrotation Xrotation
			JOINT Chest2
			{
				OFFSET -0.00664 2.06198 -0.04732
				CHANNELS 3 Zrotation Yrotation Xrotation
				JOINT lowerneck
				{
					OFFSET 0 0 0
					CHANNELS 3 Zrotation Yrotation Xrotation
					JOINT Neck
					{
						OFFSET -0.00021 1.49948 0.16345
						CHANNELS 3 Zrotation Yrotation Xrotation
						JOINT Head
						{
							OFFSET 0.06080 1.50567 -0.26702
							CHANNELS 3 Zrotation Yrotation Xrotation
							End Site
							{
								OFFSET 0.01726 1.56470 -0.11854
							}
						}
					}
				}
				JOINT LeftCollar
				{
					OFFSET 0 0 0
					CHANNELS 3 Zrotation Yrotation Xrotation
					JOINT LeftShoulder
					{
						OFFSET 3.14993 0.82932 -0.22488
CHANNELS 3 Zrotation Xrotation Yrotation
						JOINT LeftElbow
						{
OFFSET 0 -5.682360 -0.000000
CHANNELS 3 Zrotation Xrotation Yrotation
							JOINT LeftWrist
							{
OFFSET 0 -3.171120 0.000000
CHANNELS 3 Zrotation Xrotation Yrotation
								JOINT lhand
								{
									OFFSET 0 0 0
CHANNELS 3 Zrotation Xrotation Yrotation
									JOINT LFingers
									{
OFFSET 0 -0.632690 0.000000
CHANNELS 3 Zrotation Xrotation Yrotation
										End Site
										{
OFFSET 0 -0.510090 0.000000
										}
									}
								}
								JOINT LThumb
								{
OFFSET 0 0.000000 0.000000
CHANNELS 3 Zrotation Xrotation Yrotation
									End Site
									{
OFFSET 0 -0.517880 0.517880
									}
								}
							}
						}
					}
				}
				JOINT RightCollar
				{
					OFFSET 0 0 0
					CHANNELS 3 Zrotation Yrotation Xrotation
					JOINT RightShoulder
					{
						OFFSET -3.10571 0.91279 -0.33334
CHANNELS 3 Zrotation Xrotation Yrotation
						JOINT RightElbow
						{
OFFSET 0 -5.871200 -0.000000
CHANNELS 3 Zrotation Xrotation Yrotation
							JOINT RightWrist
							{
OFFSET 0 -3.375890 0.000000
CHANNELS 3 Zrotation Xrotation Yrotation
								JOINT rhand
								{
									OFFSET 0 0 0
CHANNELS 3 Zrotation Xrotation Yrotation
									JOINT RFingers
									{
OFFSET 0 -0.603260 0.000000
CHANNELS 3 Zrotation Xrotation Yrotation
										End Site
										{
OFFSET 0 -0.486360 0.000000
										}
									}
								}
								JOINT RThumb
								{
OFFSET 0 0.000000 0.000000
CHANNELS 3 Zrotation Xrotation Yrotation
									End Site
									{
OFFSET 0 -0.493790 0.493790
									}
								}
							}
						}
					}
				}
			}
		}
	}
}
MOTION
Frames: 11
Frame Time: 0.008333333333333333
25.114088 17.980387 -3.379776 1396.172220 373.593679 -1409.723673 0.000000 0.000000 0.000000 28.754781 -5.556444 -60.963325 5.687558 14.117850 43.713143 1.762797 -0.495615 -24.979509 0.482221 4.451688 12.351220 0.000000 0.000000 0.000000 -1.107110 3.403904 -61.342570 -8.687038 -16.600332 54.998799 -0.628235 -4.560032 -17.320607 -3.293333 11.147701 -32.788661 -6.284476 1.252601 9.920376 0.448222 1.272047 9.931195 3.915362 0.216587 4.759894 -10.923330 -4.301234 -17.458475 24.131516 -8.161232 16.638321 9.449666 -2.279205 9.789421 0.000000 0.000000 0.000000 57.035672 -9.025646 0.839372 101.522113 -59.491482 69.961293 14.926335 -19.257504 -32.943527 0.000000 0.000000 0.000000 -7.125000 0.000000 0.000000 -21.162459 62.595767 9.265849 0.000000 0.000000 0.000000 -2.614938 16.415942 -35.192547 -10.830667 -18.028220 -1.723237 -30.659142 20.117480 -26.433283 0.000000 0.000000 0.000000 7.125000 0.000000 0.000000 -0.412525 -0.043536 -0.412690
25.336568 17.325527 -3.080689 1405.351569 373.430688 -1414.201987 0.000000 0.000000 0.000000 13.480719 -4.810355 -64.635384 9.061232 16.846692 56.301317 1.572264 -9.297742 -22.481547 0.193765 2.833951 7.816877 0.000000 0.000000 0.000000 25.999110 4.294755 -56.135904 -12.542937 -18.610849 67.699668 -0.342912 -5.045900 -14.075683 -9.981700 17.398537 -59.425796 -6.910087 -0.335508 5.082832 -2.570726 -0.361597 8.523087 1.166215 -0.500133 6.116097 -7.894682 -3.943376 -17.102928 20.666381 -8.026490 18.531313 7.619687 -2.231952 10.003196 0.000000 0.000000 0.000000 27.404918 5.537127 -23.410798 98.601873 -59.718512 67.442436 13.897485 -18.180822 -31.461590 0.000000 0.000000 0.000000 -7.125000 0.000000 0.000000 -20.987554 60.971626 8.377791 0.000000 0.000000 0.000000 -12.326042 16.856901 -43.392607 -14.532217 -23.489379 -3.037727 -31.463707 3.493720 -23.580375 0.000000 0.000000 0.000000 7.125000 0.000000 0.000000 -1.377238 2.886923 -1.306502
26.069407 17.091277 -2.991055 1417.689833 359.967220 -1420.608097 0.000000 0.000000 0.000000 -6.625441 -2.680471 -54.295690 10.072463 17.450388 59.730336 2.147512 -7.440004 -26.366801 0.010700 0.625757 1.719674 0.000000 0.000000 0.000000 39.361966 -0.644914 -38.127825 -12.550696 -18.613828 67.723989 0.053344 -8.220056 -10.574493 -12.621640 18.641269 -67.946223 -9.981975 1.308997 -2.009336 -7.235585 2.737893 5.791885 -1.870655 1.014681 7.202652 -7.370847 -5.781265 -15.609684 18.647242 -10.659247 20.006333 6.412998 -3.625545 10.504114 0.000000 0.000000 0.000000 19.154811 15.554494 -35.449199 107.481866 -58.813094 75.079373 13.602687 -17.964979 -31.202277 0.000000 0.000000 0.000000 -7.125000 0.000000 0.000000 -21.088426 60.660807 8.263664 0.000000 0.000000 0.000000 -30.088073 1.325396 -25.381644 -23.912315 -35.070852 -7.656345 -33.078052 -12.726860 -24.738837 0.000000 0.000000 0.000000 7.125000 0.000000 0.000000 -2.151375 1.191562 -2.107699
27.217481 17.113514 -3.048483 1430.295576 330.032571 -1427.202755 0.000000 0.000000 0.000000 -28.328634 11.128223 -49.695643 8.782305 16.665589 55.334189 2.116889 -1.779220 -27.045864 0.002686 -0.335683 -0.922406 0.000000 0.000000 0.000000 36.842402 -9.769043 -21.856405 -11.013926 -17.941055 62.825800 0.581082 -13.565182 -7.561615 -13.588536 18.984455 -70.943779 -10.002139 5.393168 -10.867130 -9.452969 9.165496 1.947828 -3.001661 4.164833 8.281041 -11.281504 -8.045486 -17.212216 16.487130 -12.161766 19.227785 5.959199 -4.770995 10.834122 0.000000 0.000000 0.000000 15.179509 17.587709 -34.857507 109.937258 -58.443486 77.175943 13.708639 -18.500076 -31.306522 0.000000 0.000000 0.000000 -7.125000 0.000000 0.000000 -21.060913 60.782710 8.313607 0.000000 0.000000 0.000000 -42.496521 -38.856531 5.853044 -30.445064 -41.271588 -11.702214 -34.575233 -16.421220 -24.870286 0.000000 0.000000 0.000000 7.125000 0.000000 0.000000 -3.019334 0.636711 -2.989760
28.533403 16.983868 -3.412569 1435.752638 304.542688 -1429.125142 0.000000 0.000000 0.000000 -28.707671 4.760186 -51.901479 9.143608 16.899213 56.585331 1.451091 2.695050 -23.864514 0.096731 -2.004781 -5.518933 0.000000 0.000000 0.000000 32.449455 -11.894996 -16.059797 -6.213558 -14.631708 45.831954 1.835589 -25.025717 -19.993202 -13.210307 18.856770 -69.777535 -3.564485 9.440391 -13.006722 -6.184226 13.610572 0.979831 -1.825793 6.540910 8.988053 -10.979200 -10.461946 -19.227056 13.802575 -14.297819 15.650488 4.395999 -5.981865 9.988828 0.000000 0.000000 0.000000 17.285698 16.896043 -37.147756 107.952014 -58.746536 75.481415 13.991630 -19.375133 -31.137266 0.000000 0.000000 0.000000 -7.125000 0.000000 0.000000 -20.622537 60.693777 8.088002 0.000000 0.000000 0.000000 -7.056085 -63.864574 67.115833 -45.144771 -50.831743 -22.353108 -27.828466 -11.308006 -28.313859 0.000000 0.000000 0.000000 7.125000 0.000000 0.000000 1.569514 -1.360368 1.608301
29.882814 17.111469 -3.793753 1434.224407 291.334464 -1426.127012 0.000000 0.000000 0.000000 -17.278996 -8.961248 -50.316650 8.520897 16.489359 54.417902 0.563271 2.203661 -15.147269 0.342134 -3.758436 -10.398190 0.000000 0.000000 0.000000 28.338228 -2.358316 -17.512869 -5.781121 -14.212819 44.096740 -0.714475 -14.503219 -27.007588 -12.759349 18.693530 -68.376198 3.817448 9.020467 -9.322765 -2.253974 11.778420 2.083354 -2.412922 5.979861 8.652808 -9.543691 -9.731700 -19.221754 11.367707 -12.876163 13.807149 3.576984 -5.518026 8.856404 0.000000 0.000000 0.000000 18.056840 18.198181 -39.518905 99.480105 -59.657554 68.200584 14.982232 -18.587994 -30.419505 0.000000 0.000000 0.000000 -7.125000 0.000000 0.000000 -19.005766 60.258055 7.227853 0.000000 0.000000 0.000000 12.975773 -45.052731 101.411158 -88.131900 -59.986236 -58.382290 -20.896785 -6.482062 -27.404812 0.000000 0.000000 0.000000 7.125000 0.000000 0.000000 5.525793 1.069638 5.447260
30.622817 17.466716 -3.953100 1443.847095 281.282095 -1434.668364 0.000000 0.000000 0.000000 -10.369260 -20.330615 -42.615356 6.874759 15.225480 48.398942 0.199549 -0.163530 -8.381139 1.357464 -7.374804 -20.830760 0.000000 0.000000 0.000000 23.300003 4.807462 -18.092329 -5.434082 -13.856547 42.665817 -0.943210 -9.782217 -24.347372 -12.480992 18.586648 -67.505467 4.724142 6.294051 -8.114786 -0.674609 7.947447 2.302017 -2.124108 4.117644 7.716473 -7.910357 -6.672855 -18.723422 7.203348 -8.426520 15.651350 2.607978 -3.736059 8.607640 0.000000 0.000000 0.000000 17.597715 19.089350 -42.103141 93.297208 -59.958753 62.855069 14.409019 -19.535259 -31.084951 0.000000 0.000000 0.000000 -7.125000 0.000000 0.000000 -20.135548 60.745017 7.912364 0.000000 0.000000 0.000000 -3.786805 -21.813860 95.837249 -100.133114 -59.607142 -68.763945 -15.996446 -10.357570 -27.094537 0.000000 0.000000 0.000000 7.125000 0.000000 0.000000 8.414737 2.219174 8.172319
30.984232 17.634869 -3.936778 1518.487346 273.067245 -1507.219065 0.000000 0.000000 0.000000 -10.064997 -21.107448 -39.426021 6.069362 14.495169 45.259423 0.393808 -0.302925 -11.752204 1.817410 -8.474891 -24.166197 0.000000 0.000000 0.000000 18.283012 9.402446 -21.528211 -5.557027 -13.984876 43.176780 -1.388590 -1.937145 -23.037364 -12.337972 18.529869 -67.056105 5.821339 3.840715 -7.633522 0.039445 4.530550 1.948593 -2.595075 2.453585 6.792394 -4.696075 -2.373059 -19.708671 2.541419 -2.432322 16.395718 1.310364 -1.184150 8.435251 0.000000 0.000000 0.000000 12.055179 16.254811 -39.128066 87.954386 -59.984159 58.228554 16.417573 -18.216629 -30.010341 0.000000 0.000000 0.000000 -7.125000 0.000000 0.000000 -17.165488 60.208767 6.481603 0.000000 0.000000 0.000000 -11.878249 -6.965607 74.838114 -70.343469 -58.485323 -43.063876 -18.922036 -12.265315 -24.248596 0.000000 0.000000 0.000000 7.125000 0.000000 0.000000 6.403236 4.653103 5.900578
31.122414 17.739107 -3.884364 1589.932120 278.618411 -1576.240184 0.000000 0.000000 0.000000 -12.833759 -15.051164 -41.123101 5.405579 13.826482 42.546812 0.483099 2.492143 -14.274567 0.480245 -4.443765 -12.328676 0.000000 0.000000 0.000000 14.713959 15.365290 -24.121767 -5.568812 -13.997048 43.225492 -1.284329 1.029309 -21.116834 -12.021131 18.399579 -66.055679 5.444127 1.599389 -6.825462 1.350122 1.548834 1.589609 -1.467296 0.909098 5.608153 -3.183585 1.458923 -19.806839 -0.869748 3.053974 15.560849 0.604924 1.148303 8.043420 0.000000 0.000000 0.000000 10.805619 9.993209 -40.437290 85.252924 -59.914646 55.890100 17.511216 -17.634132 -29.585010 0.000000 0.000000 0.000000 -7.125000 0.000000 0.000000 -15.685954 60.057840 5.849048 0.000000 0.000000 0.000000 -13.644700 -1.000848 46.928884 -54.104446 -54.522351 -29.485340 -25.160685 -10.508321 -22.571453 0.000000 0.000000 0.000000 7.125000 0.000000 0.000000 2.365102 5.330717 2.137015
31.090523 17.791126 -3.833675 1597.065659 281.760047 -1582.440117 0.000000 0.000000 0.000000 -13.931020 -13.523542 -40.577090 4.929363 13.303784 40.516680 0.747959 3.050076 -17.719218 0.253010 -3.236344 -8.937437 0.000000 0.000000 0.000000 13.522125 16.536930 -25.281278 -5.543535 -13.970886 43.120894 -1.231792 3.423846 -20.126758 -11.737190 18.277312 -65.153347 4.970187 -0.048695 -7.039705 2.347658 -0.697641 1.675832 -0.426038 -0.237071 5.682800 -3.181921 3.092743 -18.610524 -1.992314 5.410536 14.907360 0.491692 2.171433 7.628681 0.000000 0.000000 0.000000 13.640896 4.793895 -42.935984 84.680007 -59.892803 55.394431 19.037934 -16.996090 -29.287554 0.000000 0.000000 0.000000 -7.125000 0.000000 0.000000 -13.825627 60.129171 5.161947 0.000000 0.000000 0.000000 -15.561139 3.164205 26.019982 -50.285001 -53.109718 -26.401940 -27.764084 -10.411307 -22.513410 0.000000 0.000000 0.000000 7.125000 0.000000 0.000000 0.737867 4.882355 0.672377
31.043957 17.817314 -3.829927 1601.025593 283.559124 -1586.224157 0.000000 0.000000 0.000000 -14.192231 -12.947451 -38.572497 4.311556 12.563763 37.756768 0.994109 3.016389 -20.150324 0.102089 -2.059944 -5.671410 0.000000 0.000000 0.000000 13.719576 16.904715 -25.359057 -5.444093 -13.867064 42.707586 -1.167894 4.192906 -19.466345 -11.404182 18.127283 -64.087308 4.354418 -0.412249 -7.461727 2.335152 -1.159717 1.902386 -0.153254 -0.473586 6.151594 -3.427581 3.215250 -18.554604 -2.000302 5.637160 14.878318 0.552941 2.263789 7.601867 0.000000 0.000000 0.000000 14.148274 2.604468 -41.578993 85.306138 -59.916574 55.936143 18.075690 -16.722291 -29.409878 0.000000 0.000000 0.000000 -7.125000 0.000000 0.000000 -14.955427 60.021044 5.556003 0.000000 0.000000 0.000000 -15.453729 8.074258 14.836096 -47.017023 -51.719200 -23.811746 -27.820057 -10.597743 -24.518768 0.000000 0.000000 0.000000 7.125000 0.000000 0.000000 0.983789 2.701667 0.936502
